<?xml version="1.0" encoding="UTF-8"?>
<svg id="Layer_1" xmlns="http://www.w3.org/2000/svg" viewBox="0 0 293.95 70.63">
    <defs>
        <style>
            .cls-1 {
                fill:#ffc904;
            }
            .cls-2 {
                fill:#0c0c0c;
                stroke:#fcfcfc;
            }
            .cls-2, .cls-3 {
                stroke-miterlimit:10;
            }
            .cls-3{
                fill:none;
                stroke:#fff;
                stroke-width:1.74px;
            }
        </style>
    </defs>
    <path class="cls-2"
        d="m30.34,26.12c.36-1.45,1.06-2.54,2.12-3.26,1.05-.73,2.47-1.09,4.28-1.09h18.11c1.11,0,1.97-.25,2.58-.74.62-.5,1.07-1.29,1.34-2.4l2.6-10.54c.27-1.11.22-1.9-.16-2.4-.37-.49-1.1-.74-2.21-.74h-21.78c-7.26,0-13.01,1.46-17.24,4.36-4.23,2.91-7.08,7.37-8.57,13.42l-6.71,27.18c-1.49,6.04-.83,10.52,1.97,13.42,2.79,2.9,7.82,4.36,15.08,4.36h27.45c1.1,0,1.96-.25,2.57-.74.62-.5,1.07-1.3,1.34-2.41l6.63-26.92c.28-1.1.22-1.9-.15-2.39-.37-.49-1.1-.74-2.21-.74h-13.5c-1.11,0-1.97.25-2.58.74-.62.49-1.06,1.29-1.34,2.39l-3.34,13.6h-8.45c-1.34,0-2.26-.35-2.75-1.05-.5-.69-.57-1.77-.21-3.22l5.13-20.83Z" />
    <path class="cls-2"
        d="m114.44,34.7c-.37-.49-1.11-.73-2.21-.73h-12.64c-1.1,0-1.96.24-2.57.73-.62.5-1.06,1.3-1.33,2.4l-3.48,14.12h-11.94l10.63-43.13c.27-1.11.22-1.9-.15-2.4-.37-.49-1.11-.74-2.21-.74h-13.51c-1.1,0-1.96.25-2.58.74-.61.5-1.05,1.29-1.32,2.4l-13.92,56.45c-.28,1.11-.23,1.91.15,2.41.37.49,1.1.74,2.2.74h44.36c1.1,0,1.96-.25,2.57-.74.62-.5,1.06-1.3,1.33-2.41l6.58-26.65.19-.79c.28-1.1.23-1.9-.15-2.4Z" />
    <path class="cls-2"
        d="m225.71,29.74c1.15-1.72,2.02-3.79,2.62-6.23l.99-4.01c1.06-4.3.69-7.8-1.12-10.5-1.8-2.7-5.95-4.05-12.45-4.05h-29.02c-.94,0-1.7.18-2.29.54-.1.06-.2.13-.29.2-.36.3-.66.69-.91,1.2-.05.1-.1.21-.14.33-.11.26-.2.55-.28.87l-1.1,4.46-.92,3.71-.6,2.42-.38,1.54-2.49,10.09-1.07,4.34-7.36,29.89c-.27,1.11-.22,1.91.15,2.41.38.49,1.11.74,2.21.74h13.42c1.1,0,1.96-.25,2.58-.74.62-.5,1.06-1.3,1.33-2.41l4.21-17.07h12.2c1.22,0,2,.3,2.34.92.34.6.37,1.55.05,2.83l-3.29,13.32c-.27,1.11-.22,1.91.15,2.41.37.49,1.11.74,2.22.74h13.5c1.1,0,1.96-.25,2.58-.74.62-.5,1.06-1.3,1.33-2.41l4.55-18.46c.91-3.67.66-6.59-.75-8.8-1.4-2.21-3.62-3.49-6.67-3.84,1.98-.75,3.55-1.99,4.7-3.7Zm-16.93-5.01l-.73,2.96c-.29,1.16-.79,2.14-1.51,2.92-.72.79-1.83,1.18-3.34,1.18h-6.53l2.75-11.16h6.53c1.51,0,2.43.4,2.76,1.18.33.78.36,1.76.07,2.92Z" />
    <path class="cls-2"
        d="m289.76,5.69c-.38-.49-1.12-.74-2.22-.74h-12.98c-1.1,0-1.97.25-2.58.74-.62.5-1.06,1.29-1.33,2.4l-3.52,14.29c-.15.58-.33,1.19-.55,1.82-.21.65-.59,1.26-1.14,1.84l-5.55,6.27c-.43.53-.82.9-1.2,1.13-.38.24-.8.35-1.26.35h-.87c-.47,0-.83-.11-1.09-.35-.27-.23-.48-.6-.64-1.13l-2.46-6.27c-.27-.58-.35-1.19-.25-1.84.1-.63.22-1.24.37-1.82l3.52-14.29c.27-1.11.22-1.9-.15-2.4-.37-.49-1.11-.74-2.21-.74h-13.42c-1.11,0-1.97.25-2.58.74-.62.5-1.06,1.29-1.33,2.4l-4.12,16.73c-.67,2.67-.94,4.67-.83,6.01.1,1.34.6,2.9,1.5,4.71l8.92,17.86-2.75,11.14c-.27,1.11-.22,1.91.15,2.41.38.49,1.11.74,2.21.74h14.12c1.1,0,1.96-.25,2.58-.74.61-.5,1.06-1.3,1.33-2.41l2.73-11.06,17.67-17.94c1.71-1.81,2.98-3.37,3.77-4.71.79-1.34,1.52-3.34,2.18-6.01l4.13-16.73c.27-1.11.22-1.9-.15-2.4Z" />
    <path class="cls-2"
        d="m173.79,39.81c0,16.13-13.07,29.2-29.2,29.2s-29.2-13.07-29.2-29.2,13.07-29.2,29.2-29.2,29.2,13.07,29.2,29.2Z" />
    <path class="cls-3"
        d="m115.94,42.99c1.13.13,2.28.2,3.45.2,16.13,0,29.2-13.07,29.2-29.2,0-1.04-.06-2.08-.16-3.09" />
    <path class="cls-3"
        d="m173.59,36.45c-.77-.06-1.54-.09-2.32-.09-16.13,0-29.2,13.07-29.2,29.2,0,1.14.07,2.26.19,3.36" />
    <path class="cls-1"
        d="m144.79,66.86c0,.32.32.55.66.53.35-.03.59-.29.59-.59,0-.3-.3-.53-.64-.53-.35,0-.62.27-.61.59Z" />
    <path class="cls-1"
        d="m138.19,67.33c.02.4.34.69.68.66.35-.03.59-.35.58-.73-.01-.38-.3-.68-.65-.67-.35,0-.62.34-.61.73Z" />
    <path class="cls-1"
        d="m145.69,66.75c.01-.06-.03-.06-.05-.09-.03-.02-.07-.05-.1-.08-.07-.05-.14-.1-.22-.14-.08-.04-.17-.07-.25-.1-.09-.02-.18-.05-.26-.05-.09-.01-.17-.02-.26-.02-.05,0-.07,0-.14,0-.03,0-.07,0-.12,0l-.24.03-.22.03c-.3.04-.59.08-.88.13-.29.05-.58.12-.86.2h.22c-.58-.12-1.16-.2-1.74-.27l-.45-.05h-.12s-.14-.02-.19,0h-.05s-.08.03-.08.03c-.06.01-.09.03-.14.05-.35.14-.6.39-.81.67-.09.13-.08.32.04.42.1.09.24.08.33,0h.01c.2-.18.44-.33.64-.39.02,0,.06-.01.07-.01h.03s.05,0,.05,0c.03,0-.01,0,.03,0l.09.02.41.09c.56.13,1.14.27,1.71.36.07.01.15,0,.22-.02.27-.09.55-.18.82-.28l.81-.31.2-.07.19-.06s.05-.02.09-.02c0,0,.05,0,.08,0,.06,0,.12,0,.18,0,.06,0,.11.02.17.03.05.02.1.03.15.06.05.02.09.05.14.08.02.02.04.02.07.05.03.02.04.06.1.04.18-.04.32-.17.35-.32Z" />
    <path class="cls-1"
        d="m144.78,64.45c0,.32.27.58.61.58.35,0,.63-.23.64-.53,0-.3-.25-.56-.6-.58-.34-.02-.66.21-.66.53Z" />
    <path class="cls-1"
        d="m138.17,64.33c-.01.39.26.72.61.72.35,0,.64-.3.65-.68,0-.38-.25-.7-.6-.72-.35-.02-.65.28-.66.68Z" />
    <path class="cls-1"
        d="m145.68,64.42c.02-.06-.03-.06-.05-.09-.03-.02-.06-.06-.09-.09-.07-.06-.13-.11-.21-.16-.07-.05-.16-.08-.24-.12-.08-.03-.17-.06-.25-.08-.08-.02-.17-.04-.25-.05-.05,0-.07-.01-.14-.02-.03,0-.07,0-.13,0h-.24s-.23.02-.23.02c-.3,0-.59.02-.89.05-.29.03-.58.07-.88.13h.22c-.56-.15-1.13-.28-1.71-.41l-.44-.09-.12-.02s-.14-.02-.18-.01h-.06s-.08.02-.08.02c-.06,0-.1.02-.15.03-.36.11-.65.33-.87.6-.1.12-.09.31.01.42.09.09.23.1.33.03h.01c.21-.16.46-.29.66-.33.02,0,.06,0,.07,0h.03s.05,0,.05,0c.03,0-.01,0,.03.01l.09.03.41.13c.55.18,1.11.37,1.67.51.07.02.15.02.22,0,.28-.06.57-.13.84-.21l.83-.23.21-.05.19-.04s.05-.01.09-.01c0,0,.05,0,.08,0,.06,0,.12,0,.18.02.06,0,.11.03.16.04.05.02.1.04.14.07.05.02.09.06.13.09.02.02.04.03.06.05.03.02.04.06.1.05.19-.02.33-.14.37-.29Z" />
    <path class="cls-1"
        d="m144.99,62.05c-.04.31.21.6.55.64.34.04.66-.17.69-.47.04-.3-.21-.58-.55-.64-.35-.05-.65.16-.69.47Z" />
    <path class="cls-1"
        d="m138.42,61.33c-.05.39.19.74.54.77.34.04.66-.24.71-.62.05-.38-.19-.72-.53-.77-.34-.05-.66.22-.71.62Z" />
    <path class="cls-1"
        d="m145.89,62.11c.02-.05-.02-.07-.04-.1-.02-.03-.06-.06-.08-.1-.06-.06-.12-.12-.2-.18-.07-.06-.15-.1-.23-.14-.08-.03-.16-.08-.25-.1-.08-.03-.16-.05-.25-.07-.05,0-.07-.02-.14-.03-.03,0-.07-.01-.12-.02l-.24-.02h-.23c-.3-.03-.59-.04-.89-.04-.29,0-.58.02-.88.05l.22.03c-.55-.21-1.11-.39-1.67-.57l-.43-.13-.12-.03s-.14-.03-.18-.03h-.14c-.06,0-.1.02-.15.02-.37.08-.65.27-.91.52-.11.11-.12.3-.03.42.08.1.22.12.32.06h.01c.23-.14.48-.25.69-.27.02,0,.06,0,.07,0h.03s.05,0,.05,0c.03,0-.01,0,.03.02l.09.03.39.17c.53.23,1.07.47,1.61.66.07.02.15.03.22.02.29-.03.58-.08.86-.13l.85-.16.21-.03.19-.02s.05,0,.09,0c0,0,.05,0,.08,0,.06,0,.12.02.18.03.06.01.11.04.16.06.05.03.1.05.14.08.04.03.09.07.12.1.02.02.04.03.06.06.03.02.03.06.09.06.19,0,.34-.11.4-.26Z" />
    <path class="cls-1"
        d="m145.41,59.69c-.07.31.14.61.49.68.34.07.67-.11.74-.41.07-.29-.15-.6-.49-.68-.34-.09-.67.1-.74.41Z" />
    <path class="cls-1"
        d="m138.93,58.37c-.09.39.12.75.46.82.34.07.67-.18.76-.55.08-.37-.12-.74-.46-.82-.34-.08-.68.16-.77.55Z" />
    <path class="cls-1"
        d="m146.31,59.82c.03-.05-.02-.07-.03-.1-.02-.03-.05-.07-.07-.1-.06-.07-.11-.13-.18-.19-.07-.06-.14-.11-.22-.16-.08-.04-.16-.09-.24-.12-.08-.04-.16-.07-.24-.09-.05-.01-.06-.02-.14-.04-.03,0-.07-.02-.12-.03l-.24-.04-.22-.03c-.29-.05-.59-.08-.88-.11-.29-.03-.58-.04-.88-.03l.21.05c-.53-.26-1.07-.49-1.61-.72l-.42-.17-.12-.04s-.13-.04-.18-.05h-.05s-.08,0-.08,0c-.06,0-.1,0-.15,0-.37.04-.68.21-.95.43-.12.1-.15.28-.07.41.07.11.2.14.31.09h.01c.24-.12.5-.2.72-.2.02,0,.06,0,.07,0h.03s.05.01.05.01c.02,0-.01,0,.03.02l.09.04.38.2c.51.28,1.02.57,1.54.8.07.03.14.04.21.04.29,0,.58-.02.87-.05l.87-.08h.21s.19-.01.19-.01c.02,0,.06,0,.09,0,0,0,.05.01.07.02.06.01.12.03.17.05.06.02.1.05.15.07.04.03.09.06.13.09.04.03.08.07.11.11.02.02.03.03.05.06.03.02.02.06.09.07.19.01.35-.08.42-.22Z" />
    <path class="cls-1"
        d="m146.04,57.37c-.11.3.1.63.43.73.33.1.66-.06.76-.34.1-.28-.09-.61-.42-.72-.33-.12-.67.03-.78.33Z" />
    <path class="cls-1"
        d="m139.71,55.46c-.13.37.07.77.39.86.34.1.68-.12.8-.48.12-.36-.05-.74-.37-.86-.33-.11-.7.1-.82.47Z" />
    <path class="cls-1"
        d="m146.93,57.58s0-.07-.02-.1c-.02-.03-.04-.07-.06-.11-.05-.07-.1-.14-.16-.21-.06-.07-.13-.12-.2-.18-.07-.05-.15-.11-.22-.14-.08-.04-.15-.08-.23-.11-.05-.02-.06-.03-.13-.05-.03-.01-.07-.02-.12-.04l-.24-.06-.22-.05c-.29-.07-.58-.14-.87-.19-.29-.05-.58-.09-.87-.11l.21.07c-.5-.31-1.02-.59-1.54-.86l-.4-.21-.11-.05s-.13-.06-.18-.06h-.05s-.08-.02-.08-.02c-.06,0-.1,0-.15,0-.38,0-.7.15-.99.34-.13.09-.18.27-.11.4.06.12.19.16.31.12h.01c.25-.1.52-.15.73-.13.02,0,.06,0,.07.01h.03s.05.02.05.02c.02,0-.01,0,.03.02l.08.05.35.23c.48.32.96.66,1.47.94.07.04.14.06.21.06.29.02.58.03.86.03h.87s.21.01.21.01h.19s.05.02.09.03c0,0,.05.02.07.02.06.02.12.04.17.07.06.02.1.06.15.09.04.03.08.06.12.1.04.03.07.08.1.12.01.02.03.04.05.07.02.03.02.07.08.08.18.03.36-.05.44-.18Z" />
    <path class="cls-1"
        d="m146.89,55.11c-.13.29.05.64.37.76.32.13.67,0,.79-.27.12-.27-.03-.61-.35-.76-.32-.14-.68-.03-.81.26Z" />
    <path class="cls-1"
        d="m140.76,52.64c-.15.37,0,.77.32.9.32.13.7-.06.84-.41.16-.34.03-.74-.29-.88-.32-.14-.7.03-.87.39Z" />
    <path class="cls-1"
        d="m147.75,55.41s0-.07,0-.1c-.01-.03-.04-.08-.05-.11-.04-.08-.08-.15-.14-.22-.05-.07-.12-.14-.18-.2-.07-.06-.14-.12-.21-.16-.07-.05-.14-.1-.22-.13-.04-.02-.06-.04-.13-.07-.03-.01-.07-.03-.12-.05l-.23-.08-.21-.07c-.28-.1-.56-.19-.85-.27-.28-.08-.57-.14-.86-.19l.2.09c-.47-.35-.96-.68-1.45-1l-.38-.24-.11-.06s-.12-.07-.17-.08h-.05s-.08-.03-.08-.03c-.06-.01-.1-.01-.15-.02-.38-.03-.71.08-1.02.25-.14.07-.21.25-.14.39.05.12.18.18.29.15h.01c.25-.07.53-.1.74-.06.02,0,.06.01.07.02h.03s.05.03.05.03c.02.01-.01,0,.02.02l.08.06.33.27c.45.37.91.74,1.38,1.08.06.04.13.07.2.08.28.04.57.08.86.11l.86.08.21.03.19.03s.05,0,.09.02c0,0,.05.02.07.03.06.02.11.05.16.08.05.03.09.07.14.1.04.04.08.07.11.11.03.04.06.09.09.13.01.02.03.04.04.07.02.03.01.07.07.08.18.05.35-.02.45-.14Z" />
    <path class="cls-1"
        d="m147.93,52.94c-.14.28-.01.64.3.8.31.16.67.07.81-.2.15-.26.03-.61-.27-.78-.3-.17-.67-.09-.83.18Z" />
    <path class="cls-1"
        d="m142.06,49.92c-.18.35-.08.76.23.92.31.16.7,0,.87-.33.17-.34.09-.74-.21-.91-.3-.17-.71-.04-.89.32Z" />
    <path class="cls-1"
        d="m148.76,53.32s0-.07,0-.1c-.01-.03-.03-.08-.04-.12-.03-.08-.07-.16-.12-.23-.05-.08-.11-.15-.16-.21-.06-.06-.12-.13-.19-.18-.07-.06-.14-.11-.21-.15-.04-.03-.06-.04-.12-.08-.03-.02-.06-.04-.11-.06l-.22-.1-.21-.09c-.27-.12-.54-.24-.82-.35-.28-.11-.55-.2-.84-.27l.19.11c-.43-.39-.89-.76-1.35-1.13l-.36-.28-.1-.07s-.12-.08-.16-.09l-.05-.02-.08-.03c-.06-.02-.1-.02-.14-.03-.37-.06-.72.02-1.05.15-.14.06-.22.24-.17.38.04.13.16.19.28.17h.01c.26-.05.53-.05.73,0,.02,0,.05.02.07.02h.02s.05.04.05.04c.02.01-.01,0,.02.03l.07.06.31.3c.42.41.83.82,1.28,1.2.06.05.13.08.2.1.28.07.56.13.85.19l.85.16.21.05.19.05s.05.01.09.03c0,0,.05.03.07.04.06.03.11.06.15.1.05.03.09.07.13.11.03.04.07.08.1.13.03.04.06.09.08.14.01.02.02.04.03.07.02.03,0,.07.07.09.18.06.35.02.46-.1Z" />
    <path class="cls-1"
        d="m149.18,50.88c-.17.27-.07.63.22.82s.66.13.82-.12c.16-.25.08-.61-.21-.81-.28-.2-.67-.16-.84.11Z" />
    <path class="cls-1"
        d="m143.6,47.34c-.21.33-.15.75.15.94.29.18.7.07.9-.24.2-.32.15-.73-.13-.93-.28-.2-.71-.1-.92.23Z" />
    <path class="cls-1"
        d="m149.97,51.33s0-.07,0-.1c0-.03-.02-.08-.03-.12-.03-.08-.05-.16-.1-.24-.04-.08-.09-.15-.14-.23-.06-.07-.11-.14-.18-.2-.06-.06-.12-.12-.19-.17-.04-.03-.05-.05-.11-.09-.03-.02-.06-.04-.1-.07l-.21-.12-.2-.11c-.26-.15-.52-.29-.78-.42-.27-.13-.54-.25-.81-.35l.18.12c-.39-.43-.82-.84-1.24-1.24l-.33-.31-.09-.08s-.11-.09-.15-.11l-.05-.02-.08-.03c-.05-.02-.09-.03-.14-.05-.37-.09-.72-.05-1.05.06-.15.05-.24.21-.21.36.03.13.14.21.26.2h.01c.26-.02.54,0,.73.07.02.01.05.02.06.03h.02s.05.04.05.04c.02.02-.01,0,.02.03l.06.07.28.32c.38.44.75.89,1.16,1.31.05.05.12.09.19.12.27.1.55.18.83.26l.83.23.2.07.18.06s.05.02.09.04c0,0,.04.03.06.04.05.03.1.07.14.11.05.04.08.08.12.12.03.04.07.09.09.13.03.04.05.1.07.14,0,.03.02.04.03.08.02.03,0,.07.06.1.17.08.35.05.47-.06Z" />
    <path class="cls-1"
        d="m150.61,48.94c-.2.25-.13.62.14.83s.65.19.83-.05c.18-.24.13-.6-.13-.83-.26-.22-.65-.22-.84.04Z" />
    <path class="cls-1"
        d="m145.37,44.91c-.24.31-.22.73.06.94.28.21.69.14.92-.16.23-.3.21-.72-.05-.94-.27-.23-.69-.16-.93.15Z" />
    <path class="cls-1"
        d="m151.35,49.46s.01-.07.02-.1c0-.04-.02-.08-.02-.13-.02-.09-.04-.17-.08-.25-.03-.08-.08-.16-.12-.24-.05-.07-.1-.15-.16-.21-.06-.07-.11-.13-.17-.19-.04-.03-.05-.05-.1-.1-.02-.02-.06-.05-.1-.08l-.2-.14-.19-.13c-.25-.17-.49-.33-.74-.49-.25-.15-.51-.29-.78-.42l.17.14c-.36-.47-.74-.91-1.13-1.35l-.3-.34-.09-.09s-.1-.1-.14-.12l-.05-.03-.07-.04c-.05-.03-.09-.04-.14-.06-.36-.13-.71-.12-1.05-.03-.15.04-.26.19-.24.34.02.13.12.22.24.22h.02c.26,0,.53.05.72.14.02.01.05.03.06.04h.02s.04.05.04.05c.02.02-.01,0,.02.03l.06.08.25.35c.33.47.67.96,1.04,1.4.05.06.11.1.17.13.26.12.53.23.8.34l.81.31.19.08.18.08s.05.02.08.04c0,0,.04.03.06.05.05.04.09.08.13.12.04.04.07.09.11.13.03.05.06.09.08.14.02.05.04.1.05.15,0,.03.01.05.02.08.01.03,0,.07.05.1.16.09.35.08.47-.01Z" />
    <path class="cls-1"
        d="m152.2,47.14c-.22.23-.19.61.07.84.26.23.63.25.84.03.21-.22.18-.59-.06-.84-.25-.25-.62-.27-.84-.04Z" />
    <path class="cls-1"
        d="m147.35,42.65c-.27.29-.29.71-.03.94.26.23.68.2.94-.07.26-.27.27-.69.03-.94-.24-.25-.66-.21-.94.07Z" />
    <path class="cls-1"
        d="m152.9,47.72s.02-.07.03-.1c0-.04,0-.09-.01-.13-.01-.09-.02-.17-.06-.26-.02-.09-.06-.17-.1-.25-.04-.08-.08-.16-.14-.22-.05-.07-.1-.14-.16-.2-.03-.04-.04-.05-.09-.11-.02-.02-.05-.05-.09-.09l-.19-.16-.18-.14c-.23-.19-.46-.38-.7-.56-.24-.18-.48-.33-.73-.48l.16.15c-.31-.5-.66-.97-1-1.45l-.27-.36-.08-.1s-.09-.11-.13-.13l-.04-.03-.07-.05s-.09-.05-.13-.07c-.35-.16-.69-.17-1.04-.13-.15.02-.28.17-.27.32,0,.13.1.23.22.24h.01c.26.03.53.1.71.21.02.01.05.03.06.04l.02.02.04.04s-.01,0,.01.03l.05.08.22.37c.29.5.58,1.01.9,1.49.04.06.1.11.16.15.25.14.51.28.77.41l.78.38.19.1.17.1s.05.03.08.05c0,0,.04.04.06.05.05.04.09.09.12.13.04.05.06.09.09.14.02.05.05.1.06.15.02.05.03.1.04.15,0,.03,0,.05.01.08,0,.03-.01.07.04.11.15.11.34.11.47.03Z" />
    <path class="cls-1"
        d="m153.95,45.48c-.24.21-.25.58-.01.84.23.26.61.31.83.11.23-.2.23-.57.01-.84-.22-.27-.59-.32-.83-.11Z" />
    <path class="cls-1"
        d="m149.52,40.57c-.3.26-.35.68-.12.93.23.25.66.26.94.01.29-.25.34-.66.12-.93-.22-.27-.64-.27-.94-.02Z" />
    <path class="cls-1"
        d="m154.59,46.12c.05-.03.03-.06.04-.1,0-.04,0-.09,0-.13,0-.09,0-.17-.03-.26-.02-.09-.05-.17-.08-.26-.04-.08-.07-.17-.12-.24-.04-.08-.09-.15-.14-.22-.03-.04-.04-.06-.09-.11-.02-.03-.05-.06-.08-.09l-.17-.17-.16-.16c-.21-.21-.42-.41-.64-.61-.22-.2-.45-.38-.69-.55l.14.17c-.27-.52-.57-1.03-.87-1.54l-.24-.38-.07-.1s-.08-.11-.12-.14l-.04-.04-.06-.05s-.08-.06-.12-.08c-.33-.19-.67-.23-1.02-.22-.16,0-.29.14-.3.29,0,.13.08.23.2.26h.01c.26.05.52.15.69.27.02.02.05.03.05.05l.02.02.04.04s-.01,0,.01.03l.04.09.18.39c.24.53.48,1.06.76,1.56.04.07.09.12.15.16.24.17.48.33.73.48l.74.45.18.12.16.11s.04.03.07.06c0,0,.03.04.05.06.04.05.08.09.11.14.04.05.05.1.08.15.02.05.04.1.05.15.01.05.02.11.03.16,0,.03,0,.05,0,.08,0,.04-.02.07.03.11.14.12.33.14.47.07Z" />
    <path class="cls-1"
        d="m155.84,43.99c-.26.18-.3.56-.09.83.21.27.58.36.82.19.24-.17.28-.55.09-.83-.19-.29-.56-.37-.82-.19Z" />
    <path class="cls-1"
        d="m151.88,38.7c-.32.23-.41.64-.2.92.21.27.62.31.93.1.31-.22.4-.63.2-.91-.2-.29-.62-.33-.94-.1Z" />
    <path class="cls-1"
        d="m156.43,44.69c.05-.02.03-.06.05-.09,0-.04,0-.08.01-.13,0-.09,0-.17,0-.26,0-.09-.03-.18-.05-.27-.03-.08-.06-.17-.1-.25-.04-.08-.07-.16-.12-.23-.03-.04-.03-.06-.07-.12-.02-.03-.04-.06-.07-.1l-.16-.19-.15-.17c-.19-.23-.38-.45-.58-.67-.2-.22-.41-.42-.63-.61l.13.18c-.22-.55-.47-1.08-.73-1.61l-.2-.41-.06-.11s-.07-.12-.1-.15l-.04-.04-.06-.06s-.08-.06-.11-.09c-.31-.22-.65-.29-1-.31-.16,0-.3.11-.33.26-.02.13.06.24.18.28h.01c.26.08.5.2.66.34.02.02.04.04.05.05l.02.02.03.04s-.01,0,0,.03l.04.09.15.4c.19.55.38,1.1.62,1.62.03.07.08.13.13.17.22.19.45.37.68.54l.7.52.17.13.15.13s.04.04.07.06c0,0,.03.04.05.06.04.05.07.1.1.15.03.05.04.1.07.16.01.05.03.1.03.15,0,.05,0,.11.01.16,0,.03,0,.05,0,.08,0,.04-.03.06.02.11.13.13.31.17.46.12Z" />
    <path class="cls-1"
        d="m157.86,42.68c-.28.15-.35.53-.16.83.18.29.54.4.8.26.26-.15.33-.52.17-.82-.17-.3-.53-.42-.8-.26Z" />
    <path class="cls-1"
        d="m154.39,37.05c-.35.19-.46.61-.28.9.19.3.59.36.92.18.33-.19.46-.59.29-.89s-.58-.39-.93-.19Z" />
    <path class="cls-1"
        d="m158.38,43.43c.06-.02.04-.06.05-.09,0-.03.02-.08.02-.12.01-.09.02-.17.02-.26,0-.09-.02-.18-.03-.27-.02-.09-.04-.18-.07-.26-.03-.08-.06-.16-.1-.24-.02-.04-.03-.06-.06-.13-.02-.03-.04-.06-.06-.11l-.14-.2-.13-.18c-.17-.25-.34-.49-.52-.72-.18-.23-.37-.45-.58-.66l.11.19c-.17-.56-.37-1.11-.58-1.67l-.16-.42-.05-.11s-.06-.13-.09-.16l-.03-.04-.05-.06s-.07-.07-.11-.1c-.29-.24-.62-.35-.97-.4-.16-.02-.31.08-.35.23-.03.13.03.24.15.29h.01c.25.1.49.24.63.4.02.02.04.04.05.06l.02.02.03.05s-.01,0,0,.03l.03.09.11.41c.14.56.28,1.12.47,1.68.02.07.07.14.12.19.2.2.41.4.63.6l.65.58.15.15.14.14s.04.04.06.07c0,0,.03.05.04.07.03.05.06.11.08.16.03.05.03.11.05.16,0,.05.02.1.02.16,0,.05,0,.11,0,.16,0,.03,0,.05,0,.08,0,.04-.03.06,0,.11.12.14.3.2.45.16Z" />
    <path class="cls-1"
        d="m159.99,41.55c-.29.12-.39.51-.23.81.16.31.49.44.77.32.27-.12.38-.48.24-.8-.14-.32-.49-.47-.78-.34Z" />
    <path class="cls-1"
        d="m157.04,35.63c-.36.17-.51.57-.36.88.16.31.55.41.9.25.34-.16.51-.54.37-.86s-.55-.44-.91-.28Z" />
    <path class="cls-1"
        d="m160.44,42.35c.06-.01.04-.05.06-.08,0-.03.02-.08.04-.12.02-.09.04-.17.04-.26,0-.09,0-.18,0-.27-.02-.09-.02-.18-.05-.26-.02-.09-.04-.17-.08-.25-.02-.05-.02-.07-.05-.13-.01-.03-.03-.07-.05-.11l-.12-.21-.11-.19c-.15-.26-.3-.51-.45-.76-.16-.25-.33-.49-.52-.72l.09.2c-.12-.58-.27-1.14-.42-1.71l-.13-.44-.04-.12s-.05-.13-.07-.17l-.03-.05-.05-.07s-.06-.08-.1-.11c-.27-.27-.59-.41-.93-.49-.15-.04-.32.05-.37.2-.04.13.01.25.12.3h.01c.24.12.46.29.59.45.01.02.03.05.04.06v.02s.04.05.04.05c0,.02,0,0,0,.03l.02.09.07.42c.09.57.18,1.16.32,1.72.02.07.05.14.1.2.18.22.37.44.57.65l.59.63.14.16.12.15s.03.04.06.08c0,0,.02.05.03.07.03.06.05.11.07.17.02.06.02.11.04.16,0,.05.01.11,0,.16,0,.05,0,.11-.02.16,0,.03,0,.05-.02.08,0,.04-.04.06,0,.11.1.15.28.23.43.2Z" />
    <path class="cls-1"
        d="m162.21,40.62c-.3.11-.43.47-.3.79.13.32.45.49.73.39.28-.09.42-.44.31-.77s-.44-.51-.74-.41Z" />
    <path class="cls-1"
        d="m159.82,34.46c-.37.14-.56.52-.44.85s.52.47.87.33c.36-.13.56-.49.45-.82-.11-.33-.51-.49-.88-.36Z" />
    <path class="cls-1"
        d="m162.58,41.46c.06,0,.05-.05.07-.08.01-.03.03-.08.05-.12.03-.08.06-.16.07-.25.02-.09.02-.18.02-.27,0-.09,0-.18-.03-.26-.01-.09-.03-.17-.05-.25-.01-.05-.02-.07-.04-.14,0-.03-.02-.07-.04-.12l-.1-.22-.1-.2c-.12-.27-.25-.54-.38-.8-.14-.26-.28-.51-.45-.76l.07.21c-.06-.58-.16-1.16-.27-1.74l-.08-.44-.03-.12s-.03-.14-.06-.18l-.03-.05-.04-.07c-.03-.05-.06-.08-.09-.12-.24-.29-.55-.46-.88-.58-.15-.05-.32.03-.38.17-.05.12,0,.25.1.31h.01c.22.15.43.32.55.5.01.02.03.05.03.06v.02s.03.05.03.05c0,.02,0-.01,0,.03v.09s.04.43.04.43c.04.58.08,1.17.16,1.74.01.07.04.15.08.2.16.24.33.47.51.7l.53.68.12.17.11.16s.03.05.05.08c0,0,.02.05.03.07.02.06.04.12.05.17.02.06.01.11.02.17,0,.05,0,.11,0,.16,0,.05-.02.11-.03.16,0,.03-.01.05-.02.08,0,.04-.04.06-.01.11.09.16.25.24.41.23Z" />
    <path class="cls-1"
        d="m164.51,39.91c-.3.09-.47.43-.38.76s.41.54.7.45c.29-.08.46-.4.38-.74-.08-.33-.4-.56-.7-.48Z" />
    <path class="cls-1"
        d="m162.69,33.56c-.38.11-.61.47-.51.8.1.33.47.52.84.42.36-.11.6-.44.52-.78-.08-.33-.46-.55-.84-.43Z" />
    <path class="cls-1"
        d="m164.8,40.77c.06,0,.05-.05.08-.07.02-.03.04-.07.06-.11.04-.08.07-.16.09-.24.03-.09.03-.18.05-.26,0-.09,0-.18,0-.26,0-.09-.01-.17-.03-.25,0-.05,0-.07-.03-.14,0-.03-.02-.07-.03-.12l-.08-.23-.08-.21c-.1-.28-.2-.56-.31-.84-.11-.27-.24-.54-.38-.8l.05.21c0-.58-.05-1.17-.1-1.76l-.04-.45-.02-.12s-.02-.14-.04-.18l-.02-.05-.04-.08c-.03-.05-.05-.09-.07-.13-.21-.31-.5-.52-.83-.66-.14-.06-.32,0-.4.14-.06.12-.03.25.07.32h.01c.21.17.4.36.5.55,0,.02.03.05.03.07v.03s.02.05.02.05c0,.03,0-.01,0,.03v.1s0,.43,0,.43c-.01.58-.03,1.17,0,1.75,0,.08.03.15.06.21.14.25.29.5.44.75l.47.73.11.18.09.17s.03.05.04.08c0,0,.01.05.02.07.02.06.03.12.04.18.01.06,0,.11,0,.17,0,.05,0,.11-.02.16,0,.05-.03.1-.04.15-.01.03-.02.05-.03.08,0,.04-.05.05-.02.11.07.17.23.27.39.27Z" />
    <path class="cls-1"
        d="m166.86,39.41c-.31.06-.51.38-.45.72s.36.57.65.52c.29-.06.49-.37.45-.71-.05-.35-.34-.59-.65-.53Z" />
    <path class="cls-1"
        d="m165.63,32.91c-.39.07-.65.4-.58.74.07.34.42.56.8.5.37-.07.63-.4.58-.74-.05-.35-.41-.57-.8-.5Z" />
    <path class="cls-1"
        d="m167.08,40.29c.06,0,.06-.04.08-.07.02-.03.04-.07.07-.11.04-.08.08-.15.11-.24.03-.08.05-.17.07-.26,0-.09.03-.18.02-.26,0-.09,0-.17,0-.26,0-.05,0-.07-.01-.14,0-.03-.01-.07-.02-.12l-.06-.24-.06-.22c-.07-.29-.15-.58-.23-.86-.09-.28-.19-.56-.3-.83l.03.22c.04-.59.05-1.17.06-1.76v-.45s0-.12,0-.12c0-.03,0-.14-.03-.18l-.02-.05-.03-.08c-.02-.06-.04-.09-.06-.14-.18-.34-.45-.56-.76-.72-.14-.07-.32-.03-.41.1-.07.11-.06.24.04.33h.01c.2.19.37.4.45.6,0,.02.02.05.02.07v.03s.02.05.02.05c0,.03,0-.01,0,.03v.1s-.05.43-.05.43c-.07.58-.14,1.16-.16,1.74,0,.07.01.15.04.21.12.26.24.53.37.79l.4.77.09.19.08.18s.02.05.03.09c0,0,0,.05.01.08.01.06.02.12.02.18,0,.06,0,.11,0,.17-.01.05-.02.11-.04.15-.01.05-.04.1-.06.15-.01.02-.02.04-.04.07-.01.03-.05.05-.03.11.06.18.21.29.36.3Z" />
    <path class="cls-1"
        d="m169.25,39.12c-.32.02-.54.32-.51.67.03.35.31.61.6.58.3-.02.53-.32.51-.67-.02-.35-.29-.61-.6-.58Z" />
    <path class="cls-1"
        d="m168.61,32.54c-.39.03-.68.34-.65.68.04.34.37.6.75.57.38-.03.67-.33.65-.68-.02-.35-.35-.6-.75-.57Z" />
    <path class="cls-1"
        d="m169.38,40.02c.06,0,.06-.04.09-.06.02-.03.05-.07.08-.1.05-.07.1-.14.13-.23.04-.08.06-.17.09-.26.02-.09.04-.18.05-.26.01-.09.02-.17.02-.26,0-.05,0-.07,0-.14,0-.03,0-.07-.01-.12l-.03-.24-.04-.22c-.04-.3-.09-.59-.15-.87-.06-.29-.14-.57-.23-.85l.02.22c.1-.58.16-1.16.21-1.76l.04-.45v-.12s0-.14,0-.19v-.05s-.03-.08-.03-.08c-.02-.06-.03-.09-.05-.14-.15-.34-.4-.58-.69-.78-.13-.09-.32-.06-.42.06-.08.1-.08.24,0,.33h.01c.18.21.33.44.39.64,0,.02.02.05.02.07v.03s.01.05.01.05c0,.03,0-.01,0,.03l-.02.09-.08.42c-.12.57-.24,1.14-.32,1.71,0,.07,0,.15.02.22.09.27.19.55.3.82l.33.8.07.2.06.18s.02.05.02.09c0,0,0,.05,0,.08,0,.06,0,.12,0,.18,0,.06-.02.11-.02.17-.02.05-.03.1-.05.15-.02.05-.05.1-.07.14-.02.02-.02.04-.04.07-.02.03-.06.04-.04.1.04.18.18.31.33.34Z" />
    <path class="cls-1"
        d="m171.66,39.05c-.32-.02-.57.27-.57.62,0,.34.25.62.55.64.3.01.55-.26.57-.6.01-.35-.23-.64-.55-.65Z" />
    <path class="cls-1"
        d="m171.61,32.44c-.39-.02-.71.28-.71.62,0,.35.32.61.69.63.38.01.69-.26.71-.6.01-.35-.3-.64-.69-.65Z" />
    <path class="cls-1"
        d="m171.71,39.96c.06.02.06-.03.09-.05.02-.03.06-.06.09-.09.06-.07.11-.13.15-.21.05-.08.08-.16.11-.24.02-.08.06-.17.07-.26.02-.09.03-.17.04-.25,0-.05,0-.07.01-.14,0-.03,0-.07,0-.12v-.24s-.03-.22-.03-.22c-.02-.3-.04-.59-.07-.89-.03-.29-.08-.58-.15-.87v.22c.14-.57.26-1.14.37-1.72l.08-.45.02-.12s.02-.14,0-.19v-.05s-.02-.08-.02-.08c0-.06-.02-.1-.04-.14-.12-.36-.35-.63-.62-.86-.12-.1-.31-.1-.42,0-.09.09-.1.23-.02.33h0c.16.23.29.47.34.68,0,.02.01.06,0,.07v.03s0,.05,0,.05c0,.03,0-.01-.01.03l-.02.09-.12.41c-.17.55-.34,1.1-.47,1.67-.02.07-.01.15,0,.22.07.28.14.56.23.84l.25.84.05.21.04.19s.01.05.02.09c0,0,0,.05,0,.08,0,.06,0,.12-.01.18,0,.06-.03.11-.04.16-.02.05-.04.1-.06.14-.02.05-.06.09-.08.13-.02.02-.03.04-.05.06-.02.03-.06.03-.05.1.03.19.15.33.3.37Z" />
    <path class="cls-1"
        d="m145.87,12.72c0-.32-.32-.55-.66-.53-.35.03-.59.29-.59.59,0,.3.3.54.64.53.35,0,.62-.27.61-.59Z" />
    <path class="cls-1"
        d="m152.47,12.25c-.02-.39-.34-.69-.68-.66-.35.03-.59.35-.58.73.01.38.3.68.65.67.35,0,.62-.34.61-.73Z" />
    <path class="cls-1"
        d="m144.97,12.83c-.01.06.03.06.05.09.03.02.07.05.1.08.07.05.14.1.22.14.08.04.17.07.25.1.09.02.18.05.26.05.09.01.17.02.26.02.05,0,.07,0,.14,0,.03,0,.07,0,.12,0l.24-.03.22-.03c.3-.04.59-.08.88-.13.29-.05.58-.12.86-.2h-.22c.58.12,1.16.2,1.74.27l.45.05h.12s.14.02.19,0h.05s.08-.03.08-.03c.06-.01.09-.03.14-.05.35-.14.6-.39.81-.67.09-.13.08-.32-.04-.42-.1-.09-.24-.08-.33,0h-.01c-.2.18-.44.33-.64.39-.02,0-.06.01-.07.01h-.03s-.06,0-.06,0c-.03,0,.01,0-.03,0l-.09-.02-.41-.09c-.56-.13-1.14-.27-1.71-.36-.07-.01-.15,0-.22.02-.27.09-.55.18-.82.28l-.81.31-.2.07-.19.06s-.05.02-.09.02c0,0-.05,0-.08,0-.06,0-.12,0-.18,0-.06,0-.11-.02-.17-.03-.05-.02-.1-.03-.15-.06-.05-.02-.09-.05-.14-.08-.02-.02-.04-.03-.07-.05-.03-.02-.04-.06-.1-.04-.18.04-.32.17-.35.32Z" />
    <path class="cls-1"
        d="m145.88,15.13c0-.32-.27-.58-.61-.58-.35,0-.63.23-.64.53,0,.3.25.56.6.58.34.02.66-.21.66-.53Z" />
    <path class="cls-1"
        d="m152.49,15.26c.01-.39-.26-.72-.61-.72-.35,0-.64.3-.65.68,0,.38.25.7.6.72.35.02.65-.28.66-.68Z" />
    <path class="cls-1"
        d="m144.98,15.16c-.02.06.03.06.05.09.03.02.06.06.09.09.07.06.13.11.21.16.07.05.16.08.24.12.08.03.17.06.25.08.08.02.17.04.25.05.05,0,.07.01.14.02.03,0,.07,0,.13,0h.24s.23-.02.23-.02c.3,0,.59-.02.89-.05.29-.03.58-.07.88-.13h-.22c.56.15,1.13.28,1.71.41l.44.09.12.02s.14.02.19.01h.06s.08-.02.08-.02c.06,0,.1-.02.15-.03.36-.11.65-.33.87-.6.1-.12.09-.31-.01-.42-.09-.09-.23-.1-.33-.03h-.01c-.21.16-.46.29-.66.33-.02,0-.06,0-.07,0h-.03s-.05,0-.05,0c-.03,0,.01,0-.03-.01l-.09-.03-.41-.13c-.55-.18-1.11-.37-1.67-.51-.07-.02-.15-.02-.22,0-.28.06-.57.13-.84.21l-.83.23-.21.05-.19.04s-.05.01-.09.01c0,0-.05,0-.08,0-.06,0-.12,0-.18-.02-.06,0-.11-.03-.16-.04-.05-.02-.1-.04-.14-.07-.05-.02-.09-.06-.13-.09-.02-.02-.04-.03-.06-.05-.03-.02-.04-.06-.1-.05-.19.02-.33.14-.37.29Z" />
    <path class="cls-1"
        d="m145.67,17.53c.04-.31-.21-.6-.55-.64-.34-.04-.66.17-.69.47-.04.3.21.58.55.64.35.05.65-.16.69-.47Z" />
    <path class="cls-1"
        d="m152.24,18.25c.05-.39-.19-.74-.54-.77-.34-.04-.66.24-.71.62-.05.38.19.72.53.77.34.05.66-.22.71-.62Z" />
    <path class="cls-1"
        d="m144.77,17.47c-.02.05.02.07.04.1.02.03.06.06.08.1.06.06.12.12.2.18.07.06.15.1.23.14.08.03.16.08.25.1.08.03.16.05.25.07.05,0,.07.02.14.03.03,0,.07.01.12.02l.24.02h.23c.3.03.59.04.89.04.29,0,.58-.02.88-.05l-.22-.03c.55.21,1.11.39,1.67.57l.43.13.12.03s.14.03.18.03h.06s.08,0,.08,0c.06,0,.1-.01.15-.02.37-.08.65-.27.91-.52.11-.11.12-.3.03-.42-.08-.1-.21-.12-.32-.06h-.01c-.23.14-.48.24-.69.27-.02,0-.06,0-.07,0h-.03s-.05,0-.05,0c-.03,0,.01,0-.03-.02l-.09-.03-.39-.17c-.53-.23-1.07-.47-1.61-.66-.07-.02-.15-.03-.22-.02-.29.03-.58.08-.86.13l-.85.16-.21.03-.19.02s-.05,0-.09,0c0,0-.05,0-.08,0-.06,0-.12-.02-.18-.03-.06-.01-.11-.04-.16-.06-.05-.03-.1-.05-.14-.08-.04-.03-.09-.07-.12-.1-.02-.02-.04-.03-.06-.06-.03-.02-.03-.06-.09-.06-.19,0-.34.11-.4.26Z" />
    <path class="cls-1"
        d="m145.25,19.9c.07-.31-.14-.61-.49-.68-.34-.07-.67.11-.74.41-.07.29.15.6.49.68.34.09.67-.1.74-.41Z" />
    <path class="cls-1"
        d="m151.73,21.21c.09-.39-.12-.75-.46-.82-.34-.07-.67.18-.76.55-.08.37.12.74.46.82.34.08.68-.16.77-.55Z" />
    <path class="cls-1"
        d="m144.35,19.76c-.03.05.02.07.03.1.02.03.05.07.07.1.06.07.11.13.18.19.07.06.14.11.22.16.08.04.16.09.24.12.08.04.16.07.24.09.05.01.06.02.14.04.03,0,.07.02.12.03l.24.04.22.03c.29.05.59.08.88.11.29.03.58.04.88.03l-.21-.05c.53.26,1.07.49,1.62.72l.42.17.12.04s.13.04.18.05h.05s.08,0,.08,0c.06,0,.1,0,.15,0,.37-.04.68-.21.95-.43.12-.1.15-.28.07-.41-.07-.11-.2-.14-.31-.09h-.01c-.24.12-.5.2-.72.2-.02,0-.06,0-.07,0h-.03s-.05-.01-.05-.01c-.02,0,.01,0-.03-.02l-.09-.04-.38-.2c-.51-.28-1.02-.57-1.54-.8-.07-.03-.14-.04-.21-.04-.29,0-.58.02-.87.05l-.87.08h-.21s-.19.01-.19.01c-.02,0-.06,0-.09,0,0,0-.05-.01-.07-.02-.06-.01-.12-.03-.17-.05-.06-.02-.1-.05-.15-.07-.04-.03-.09-.06-.13-.09-.04-.03-.08-.07-.11-.11-.02-.02-.03-.03-.05-.06-.03-.02-.02-.07-.09-.07-.19-.01-.35.08-.42.22Z" />
    <path class="cls-1"
        d="m144.62,22.22c.11-.3-.1-.63-.43-.73-.33-.1-.66.06-.76.34-.1.28.09.61.42.72.33.12.67-.03.78-.33Z" />
    <path class="cls-1"
        d="m150.95,24.12c.13-.37-.07-.77-.39-.86-.34-.1-.68.12-.8.48-.12.36.05.74.37.86.33.11.7-.1.82-.47Z" />
    <path class="cls-1"
        d="m143.73,22s0,.07.02.1c.02.03.04.07.06.11.05.07.1.14.16.21.06.07.13.12.2.18.07.05.15.11.22.14.08.04.15.08.23.11.05.02.06.03.13.05.03.01.07.02.12.04l.24.06.22.05c.29.07.58.14.87.19.29.05.58.09.87.11l-.21-.07c.5.31,1.02.59,1.54.86l.4.21.11.05s.13.06.18.06h.05s.08.02.08.02c.06,0,.1,0,.15,0,.38,0,.7-.15.99-.34.13-.09.18-.27.11-.4-.06-.12-.19-.16-.3-.12h-.01c-.25.1-.52.15-.73.13-.02,0-.06,0-.07-.01h-.03s-.05-.02-.05-.02c-.02,0,.01,0-.03-.02l-.08-.05-.35-.23c-.48-.32-.96-.66-1.47-.94-.07-.04-.14-.06-.21-.06-.29-.02-.58-.03-.86-.03h-.87s-.21-.01-.21-.01h-.19s-.06-.02-.09-.03c0,0-.05-.02-.07-.02-.06-.02-.12-.04-.17-.07-.06-.02-.1-.06-.15-.09-.04-.03-.08-.06-.12-.1-.04-.03-.07-.08-.1-.12-.01-.02-.03-.04-.05-.07-.02-.03-.02-.07-.08-.08-.18-.03-.36.05-.44.18Z" />
    <path class="cls-1"
        d="m143.77,24.47c.13-.29-.05-.64-.37-.76-.32-.13-.67,0-.79.27-.12.27.03.61.35.76.32.14.68.03.81-.26Z" />
    <path class="cls-1"
        d="m149.9,26.95c.15-.37,0-.77-.32-.9-.32-.13-.7.06-.84.41-.16.34-.03.74.29.88.32.14.7-.03.87-.39Z" />
    <path class="cls-1"
        d="m142.91,24.17s0,.07,0,.1c.01.03.04.08.05.11.04.08.08.15.14.22.05.07.12.14.18.2.07.05.14.12.21.16.07.05.14.1.22.13.04.02.06.04.13.07.03.01.07.03.12.05l.23.08.21.07c.28.1.56.19.85.27.28.08.57.14.86.19l-.2-.09c.47.35.96.68,1.45,1l.38.24.11.06s.12.07.17.08h.05s.08.03.08.03c.06.01.1.01.15.02.38.03.71-.08,1.02-.25.14-.07.21-.25.14-.39-.05-.12-.18-.18-.29-.15h-.01c-.25.07-.53.1-.74.06-.02,0-.06-.01-.07-.02h-.03s-.05-.03-.05-.03c-.02-.01.01,0-.02-.02l-.08-.06-.33-.27c-.45-.37-.91-.74-1.38-1.08-.06-.04-.13-.07-.2-.08-.28-.04-.57-.08-.86-.11l-.86-.08-.21-.03-.19-.03s-.05,0-.09-.02c0,0-.05-.02-.07-.03-.06-.02-.11-.05-.16-.08-.05-.03-.09-.07-.14-.1-.04-.04-.08-.07-.11-.11-.03-.04-.06-.09-.09-.13-.01-.02-.03-.04-.04-.07-.02-.03-.01-.07-.07-.08-.18-.05-.35.02-.45.14Z" />
    <path class="cls-1"
        d="m142.73,26.64c.14-.28.01-.64-.3-.8-.31-.16-.67-.07-.81.2-.15.26-.03.61.27.78.3.17.67.09.83-.18Z" />
    <path class="cls-1"
        d="m148.6,29.66c.18-.35.08-.76-.23-.92-.31-.16-.7,0-.87.33-.17.34-.09.74.21.91.3.17.71.04.89-.32Z" />
    <path class="cls-1"
        d="m141.9,26.26s0,.07,0,.1c.01.03.03.08.04.12.03.08.07.16.12.23.05.08.11.15.16.21.06.06.12.13.19.18.07.06.14.11.21.15.04.03.06.04.12.08.03.02.06.04.11.06l.22.1.21.09c.27.12.54.24.82.35.28.11.55.2.84.27l-.19-.11c.43.39.89.76,1.35,1.13l.36.28.1.07s.11.08.16.09l.05.02.08.03c.06.02.1.02.14.03.37.06.72-.02,1.05-.15.14-.06.22-.24.17-.38-.04-.13-.16-.19-.28-.17h-.01c-.26.05-.53.05-.74,0-.02,0-.05-.02-.07-.02h-.02s-.05-.04-.05-.04c-.02-.01.01,0-.02-.03l-.07-.06-.31-.3c-.42-.41-.83-.82-1.28-1.2-.06-.05-.13-.08-.2-.1-.28-.07-.56-.13-.85-.19l-.85-.16-.21-.05-.19-.05s-.05-.01-.09-.03c0,0-.05-.03-.07-.04-.06-.03-.11-.06-.15-.1-.05-.03-.08-.07-.13-.11-.03-.04-.07-.08-.1-.13-.03-.04-.06-.09-.08-.14-.01-.03-.02-.04-.03-.07-.02-.03,0-.07-.07-.09-.18-.06-.35-.02-.46.1Z" />
    <path class="cls-1"
        d="m141.48,28.7c.17-.27.07-.63-.22-.82-.29-.18-.66-.13-.82.12-.16.25-.08.61.21.81.28.2.67.16.84-.11Z" />
    <path class="cls-1"
        d="m147.06,32.24c.21-.33.15-.75-.15-.94-.29-.18-.7-.07-.9.24-.2.32-.15.73.13.93.28.2.71.1.92-.23Z" />
    <path class="cls-1"
        d="m140.69,28.25s0,.07,0,.1c0,.03.02.08.03.12.03.08.05.16.1.24.04.08.09.15.14.23.06.07.11.14.18.2.06.06.12.12.19.17.04.03.05.05.11.09.03.02.06.04.1.07l.21.12.2.11c.26.15.52.29.78.42.27.13.53.25.81.35l-.18-.12c.39.43.82.84,1.24,1.24l.33.31.09.08s.11.09.15.11l.05.02.08.03c.05.02.09.03.14.05.37.09.72.05,1.05-.06.15-.05.24-.21.21-.36-.03-.13-.14-.21-.26-.2h-.01c-.26.02-.54,0-.73-.07-.02-.01-.05-.02-.06-.03h-.02s-.05-.04-.05-.04c-.02-.02.01,0-.02-.03l-.06-.07-.28-.32c-.38-.44-.75-.89-1.16-1.31-.05-.05-.12-.09-.18-.12-.27-.1-.55-.18-.83-.26l-.83-.23-.2-.07-.18-.06s-.05-.02-.09-.04c0,0-.04-.03-.06-.04-.05-.03-.1-.07-.14-.11-.05-.04-.08-.08-.12-.12-.03-.04-.07-.09-.09-.13-.03-.04-.05-.1-.07-.14,0-.03-.02-.04-.03-.08-.02-.03,0-.07-.06-.1-.17-.08-.35-.05-.47.06Z" />
    <path class="cls-1"
        d="m140.05,30.64c.2-.25.13-.62-.14-.83-.28-.21-.65-.19-.83.05-.18.24-.13.6.14.83.26.22.65.22.84-.04Z" />
    <path class="cls-1"
        d="m145.29,34.67c.24-.31.22-.73-.06-.94-.28-.21-.69-.14-.92.16-.23.3-.21.72.05.94.27.23.69.16.93-.15Z" />
    <path class="cls-1"
        d="m139.31,30.12s-.02.07-.02.1c0,.04.02.08.02.13.02.09.04.17.08.25.03.08.08.16.12.24.05.07.1.15.16.21.06.07.11.13.17.19.04.03.05.05.1.1.03.02.06.05.1.08l.2.14.19.13c.25.17.49.33.74.49.25.15.51.29.78.42l-.17-.14c.35.47.74.91,1.13,1.35l.3.34.09.09s.1.1.14.12l.05.03.07.04c.05.03.09.04.14.06.36.13.71.12,1.05.03.15-.04.26-.19.24-.34-.02-.13-.12-.22-.24-.22h-.01c-.27,0-.53-.05-.73-.14-.02-.01-.05-.03-.06-.04h-.02s-.04-.05-.04-.05c-.02-.02.01,0-.02-.03l-.06-.08-.25-.35c-.33-.47-.67-.96-1.04-1.4-.05-.06-.11-.1-.17-.13-.26-.12-.53-.23-.8-.34l-.81-.31-.19-.08-.18-.08s-.05-.02-.08-.04c0,0-.04-.03-.06-.05-.05-.04-.09-.08-.13-.12-.04-.04-.07-.09-.11-.13-.03-.05-.06-.09-.07-.14-.02-.05-.04-.1-.05-.15,0-.03-.01-.05-.02-.08-.01-.03,0-.07-.05-.1-.16-.09-.35-.08-.47.01Z" />
    <path class="cls-1"
        d="m138.46,32.44c.22-.23.19-.61-.07-.84-.26-.23-.63-.25-.84-.03-.21.22-.18.59.06.84.25.25.62.27.84.04Z" />
    <path class="cls-1"
        d="m143.31,36.93c.27-.29.29-.71.03-.94-.26-.23-.67-.2-.94.07-.26.27-.27.69-.03.94.24.25.66.21.94-.07Z" />
    <path class="cls-1"
        d="m137.76,31.86s-.02.07-.03.1c0,.04,0,.09.01.13.01.09.02.17.06.26.02.09.06.17.1.25.04.08.09.16.14.23.05.07.1.14.16.2.03.04.04.05.09.11.02.02.05.05.09.09l.19.16.18.14c.23.19.46.38.7.56.24.18.48.33.73.48l-.16-.15c.32.5.66.97,1,1.45l.27.36.08.1s.09.11.13.13l.04.03.07.05s.09.05.13.07c.35.16.69.17,1.04.13.15-.02.28-.17.27-.32,0-.13-.1-.23-.22-.24h-.02c-.26-.03-.53-.1-.71-.21-.02-.01-.05-.03-.06-.04l-.02-.02-.04-.04s.01,0-.02-.03l-.05-.08-.22-.37c-.29-.5-.58-1.01-.9-1.49-.04-.06-.1-.11-.16-.15-.25-.14-.51-.28-.77-.41l-.78-.38-.19-.1-.17-.1s-.05-.03-.08-.05c0,0-.04-.04-.06-.05-.05-.04-.09-.09-.12-.13-.04-.05-.06-.09-.09-.14-.02-.05-.05-.1-.06-.15-.02-.05-.03-.1-.04-.15,0-.03,0-.05-.01-.08,0-.03.01-.07-.04-.11-.15-.11-.34-.11-.47-.03Z" />
    <path class="cls-1"
        d="m136.71,34.1c.24-.21.25-.58.01-.84-.23-.26-.61-.31-.83-.11-.23.2-.23.57-.01.84.22.27.59.32.83.11Z" />
    <path class="cls-1"
        d="m141.14,39.01c.3-.26.35-.68.12-.93-.23-.25-.66-.26-.94-.01-.29.25-.34.66-.12.93.22.27.64.27.94.02Z" />
    <path class="cls-1"
        d="m136.07,33.46c-.05.03-.03.06-.04.1,0,.04,0,.09,0,.13,0,.09,0,.17.03.26.02.09.05.17.08.26.04.08.07.17.12.24.04.08.09.15.14.22.03.04.04.06.08.11.02.03.05.06.08.09l.17.17.16.16c.21.21.42.41.64.61.22.2.45.38.69.55l-.14-.17c.27.52.57,1.03.87,1.54l.24.38.07.1s.08.11.12.14l.04.04.06.05s.08.06.12.08c.33.19.67.23,1.02.22.16,0,.29-.14.3-.29,0-.13-.08-.23-.2-.26h-.01c-.26-.05-.52-.15-.69-.27-.02-.02-.05-.03-.05-.05l-.02-.02-.04-.04s.01,0-.01-.03l-.04-.09-.18-.39c-.24-.53-.48-1.06-.76-1.56-.04-.07-.09-.12-.15-.16-.24-.17-.48-.33-.73-.48l-.74-.45-.18-.12-.16-.11s-.04-.03-.07-.06c0,0-.03-.04-.05-.06-.04-.05-.08-.09-.11-.14-.04-.05-.05-.1-.08-.15-.02-.05-.04-.1-.05-.15-.01-.05-.02-.11-.03-.16,0-.03,0-.05,0-.08,0-.04.02-.07-.03-.11-.14-.12-.33-.14-.47-.07Z" />
    <path class="cls-1"
        d="m134.82,35.59c.26-.18.3-.56.09-.83-.21-.27-.58-.36-.82-.19-.24.17-.28.55-.09.83.19.29.56.37.82.19Z" />
    <path class="cls-1"
        d="m138.78,40.88c.32-.23.41-.64.2-.92-.21-.27-.62-.31-.93-.1-.31.22-.4.63-.2.91s.62.33.94.1Z" />
    <path class="cls-1"
        d="m134.23,34.89c-.05.02-.03.06-.05.09,0,.04,0,.08-.01.13,0,.09,0,.17,0,.26,0,.09.03.18.05.27.03.08.06.17.1.25.04.08.07.16.12.23.03.04.03.06.07.12.02.03.04.06.07.1l.15.19.15.17c.19.23.38.45.58.67.2.22.41.42.64.61l-.13-.18c.22.55.47,1.08.73,1.61l.2.41.06.11s.07.12.1.15l.04.04.06.06s.08.06.12.09c.31.22.65.29,1,.31.16,0,.3-.11.33-.26.02-.13-.06-.24-.18-.28h-.01c-.26-.08-.5-.2-.66-.34-.02-.02-.04-.04-.05-.05l-.02-.02-.03-.04s.01,0,0-.03l-.04-.09-.15-.4c-.19-.55-.38-1.1-.62-1.62-.03-.07-.08-.13-.13-.17-.22-.19-.45-.37-.68-.54l-.7-.52-.17-.13-.15-.13s-.04-.04-.07-.06c0,0-.03-.04-.05-.06-.04-.05-.07-.1-.1-.15-.03-.05-.04-.1-.07-.16-.01-.05-.03-.1-.03-.15,0-.05,0-.11-.01-.16,0-.03,0-.05,0-.08,0-.04.03-.06-.02-.11-.13-.13-.32-.17-.46-.12Z" />
    <path class="cls-1"
        d="m132.8,36.9c.28-.15.35-.53.16-.83-.18-.29-.54-.4-.8-.26-.26.15-.33.52-.17.82.17.3.53.42.8.26Z" />
    <path class="cls-1"
        d="m136.27,42.53c.35-.19.46-.61.28-.9-.19-.3-.59-.36-.92-.18-.33.19-.46.59-.29.89.17.3.59.39.93.19Z" />
    <path class="cls-1"
        d="m132.28,36.15c-.06.02-.04.06-.05.09,0,.03-.02.08-.02.12-.01.09-.02.17-.02.26,0,.09.02.18.03.27.02.09.04.18.07.26.03.08.06.16.1.24.02.04.03.06.06.13.02.03.04.06.06.11l.14.2.13.18c.17.25.34.49.52.72.18.23.37.45.58.66l-.11-.19c.17.56.37,1.11.58,1.67l.16.42.05.11s.06.13.09.16l.03.04.05.06s.07.07.11.1c.29.24.62.35.97.4.16.02.31-.08.35-.23.03-.13-.03-.24-.15-.29h-.01c-.25-.1-.49-.24-.63-.4-.01-.02-.04-.04-.05-.06l-.02-.02-.03-.05s.01,0,0-.03l-.03-.09-.11-.41c-.14-.56-.28-1.12-.47-1.68-.02-.07-.07-.14-.12-.19-.2-.2-.41-.4-.63-.6l-.65-.58-.15-.15-.14-.14s-.04-.04-.06-.07c0,0-.03-.05-.04-.07-.03-.05-.06-.11-.08-.16-.03-.05-.03-.11-.05-.16,0-.05-.02-.1-.02-.16,0-.05,0-.11,0-.16,0-.03,0-.05,0-.08,0-.04.03-.06,0-.11-.12-.14-.3-.2-.45-.16Z" />
    <path class="cls-1"
        d="m130.67,38.03c.29-.12.39-.51.23-.81-.16-.31-.49-.44-.77-.32-.27.12-.38.48-.24.8.14.32.49.47.78.34Z" />
    <path class="cls-1"
        d="m133.62,43.95c.36-.17.51-.57.36-.88-.16-.31-.55-.41-.9-.25-.34.16-.51.54-.37.86.14.32.55.44.91.28Z" />
    <path class="cls-1"
        d="m130.22,37.24c-.06.01-.04.05-.06.08,0,.03-.02.08-.04.12-.02.09-.04.17-.04.26,0,.09,0,.18,0,.27.02.09.02.18.05.26.02.09.04.17.08.25.02.05.02.07.05.13.01.03.03.07.05.11l.12.21.11.19c.15.26.3.51.45.76.16.25.33.49.51.72l-.09-.2c.12.58.27,1.14.42,1.71l.13.44.04.12s.05.13.07.17l.03.05.05.07s.06.08.1.11c.27.27.59.41.93.49.15.04.32-.05.37-.2.04-.13-.01-.25-.12-.3h-.01c-.24-.12-.46-.29-.59-.45-.01-.02-.03-.05-.04-.06v-.02s-.04-.05-.04-.05c0-.02,0,0,0-.03l-.02-.09-.07-.42c-.09-.57-.18-1.16-.32-1.72-.02-.07-.05-.14-.1-.2-.18-.22-.37-.44-.57-.65l-.59-.63-.14-.16-.12-.15s-.03-.04-.06-.08c0,0-.02-.05-.03-.07-.03-.06-.05-.11-.07-.17-.02-.06-.02-.11-.04-.16,0-.05-.01-.11,0-.16,0-.05,0-.11.02-.16,0-.03,0-.05.02-.08,0-.04.04-.06,0-.11-.1-.15-.28-.23-.43-.2Z" />
    <path class="cls-1"
        d="m128.45,38.96c.3-.11.43-.47.3-.79-.13-.32-.45-.49-.73-.39-.28.09-.42.44-.31.77.11.33.44.51.74.41Z" />
    <path class="cls-1"
        d="m130.84,45.12c.37-.14.56-.52.44-.85-.13-.32-.52-.47-.87-.33-.36.13-.56.49-.45.82.11.33.51.49.88.36Z" />
    <path class="cls-1"
        d="m128.08,38.13c-.06,0-.05.05-.07.08-.01.03-.03.08-.05.12-.03.08-.06.16-.07.25-.02.09-.02.18-.02.27,0,.09,0,.18.03.26.01.09.03.17.05.25.01.05.01.07.04.14,0,.03.02.07.04.12l.1.22.1.2c.12.27.25.54.38.8.14.26.28.51.45.76l-.07-.21c.06.58.16,1.16.27,1.74l.08.44.03.12s.03.13.06.18l.03.05.04.07c.03.05.06.08.09.12.24.29.55.46.88.58.15.05.32-.03.38-.17.05-.12,0-.25-.1-.31h-.01c-.23-.15-.43-.32-.55-.5-.01-.02-.03-.05-.03-.06v-.02s-.03-.05-.03-.05c0-.02,0,.01,0-.03v-.09s-.04-.43-.04-.43c-.04-.58-.08-1.17-.16-1.74-.01-.07-.04-.15-.08-.2-.16-.24-.33-.47-.51-.7l-.53-.68-.12-.17-.11-.16s-.03-.05-.05-.08c0,0-.02-.05-.03-.07-.02-.06-.04-.12-.05-.17-.02-.06-.01-.11-.02-.17,0-.05,0-.11,0-.16,0-.05.02-.11.03-.16,0-.03.01-.05.02-.08,0-.04.04-.06.01-.11-.09-.16-.25-.24-.41-.23Z" />
    <path class="cls-1"
        d="m126.15,39.67c.31-.09.47-.43.38-.76-.1-.33-.41-.54-.7-.45-.29.08-.46.4-.38.74.08.33.4.56.7.48Z" />
    <path class="cls-1"
        d="m127.97,46.03c.38-.11.61-.47.51-.8-.1-.33-.47-.52-.84-.42-.36.11-.6.44-.52.78.08.33.46.55.84.43Z" />
    <path class="cls-1"
        d="m125.86,38.81c-.06,0-.05.05-.08.07-.02.03-.04.07-.06.11-.04.08-.07.16-.09.24-.02.09-.03.18-.05.26,0,.09,0,.18,0,.26,0,.09.01.17.03.25,0,.05,0,.07.03.14,0,.03.02.07.03.12l.08.23.08.21c.1.28.2.56.31.84.11.27.24.54.38.8l-.05-.21c0,.58.05,1.17.1,1.76l.04.45.02.12s.02.14.04.18l.02.05.04.08c.02.05.05.09.07.13.21.31.5.52.83.66.14.06.32,0,.4-.14.06-.12.03-.25-.07-.32h-.01c-.21-.17-.4-.36-.5-.55,0-.02-.03-.05-.03-.07v-.03s-.02-.05-.02-.05c0-.03,0,.01,0-.03v-.1s0-.43,0-.43c.01-.58.03-1.17,0-1.75,0-.08-.03-.15-.06-.21-.14-.25-.29-.5-.44-.75l-.47-.73-.11-.18-.09-.17s-.03-.05-.04-.08c0,0-.01-.05-.02-.07-.02-.06-.03-.12-.04-.18-.01-.06,0-.11,0-.17,0-.05,0-.11.02-.16,0-.05.03-.1.05-.15.01-.03.02-.05.03-.08,0-.04.05-.05.02-.11-.07-.17-.23-.27-.39-.27Z" />
    <path class="cls-1"
        d="m123.8,40.17c.31-.06.51-.38.45-.72-.07-.34-.36-.57-.65-.52-.29.06-.5.37-.45.71.05.35.34.59.65.53Z" />
    <path class="cls-1"
        d="m125.03,46.67c.39-.07.65-.4.58-.74-.07-.34-.42-.56-.8-.5-.37.07-.63.4-.58.74.05.35.41.57.8.5Z" />
    <path class="cls-1"
        d="m123.59,39.29c-.06,0-.06.04-.08.07-.02.03-.04.07-.07.11-.04.08-.08.15-.11.24-.03.08-.05.17-.07.26,0,.09-.03.18-.02.26,0,.09,0,.17,0,.26,0,.05,0,.07.01.14,0,.03.01.07.02.12l.06.24.06.22c.07.29.15.58.23.86.09.28.19.56.3.83l-.04-.22c-.04.59-.05,1.17-.06,1.76v.45s0,.12,0,.12c0,.03,0,.14.03.18l.02.05.03.08c.02.06.04.09.06.14.18.34.45.56.76.72.14.07.32.03.41-.1.07-.11.05-.24-.04-.33h-.01c-.2-.19-.37-.4-.45-.6,0-.02-.02-.05-.02-.07v-.03s-.02-.05-.02-.05c0-.03,0,.01,0-.03v-.1s.05-.43.05-.43c.07-.58.14-1.16.16-1.74,0-.08-.01-.15-.04-.21-.12-.26-.24-.53-.38-.79l-.4-.77-.09-.19-.08-.18s-.02-.05-.03-.09c0,0,0-.05-.01-.08-.01-.06-.02-.12-.02-.18,0-.06,0-.11,0-.17.01-.05.02-.11.04-.15.01-.05.04-.1.06-.15.01-.02.02-.04.04-.07.01-.03.05-.05.03-.11-.06-.18-.21-.29-.36-.3Z" />
    <path class="cls-1"
        d="m121.41,40.46c.32-.02.54-.32.51-.67-.03-.35-.31-.61-.6-.58-.3.02-.53.32-.51.67.02.35.29.61.6.58Z" />
    <path class="cls-1"
        d="m122.05,47.04c.39-.03.68-.34.65-.68-.04-.34-.37-.6-.75-.57-.38.03-.67.33-.65.68.02.35.35.6.75.57Z" />
    <path class="cls-1"
        d="m121.28,39.56c-.06,0-.06.04-.09.06-.02.03-.05.07-.08.1-.05.07-.1.14-.13.23-.04.08-.06.17-.09.26-.02.09-.04.18-.05.26-.01.09-.02.17-.02.26,0,.05,0,.07,0,.14,0,.03,0,.07.01.12l.03.24.04.22c.04.3.09.59.15.87.06.29.14.57.23.85l-.02-.22c-.1.58-.16,1.16-.21,1.76l-.04.45v.12s0,.14,0,.19v.05s.03.08.03.08c.02.06.03.09.05.14.15.34.4.58.69.78.13.09.32.06.42-.05.08-.1.08-.24,0-.33h-.01c-.18-.21-.33-.44-.39-.64,0-.02-.02-.05-.02-.07v-.03s-.01-.05-.01-.05c0-.03,0,.01,0-.03l.02-.09.08-.42c.12-.57.24-1.14.32-1.71,0-.07,0-.15-.02-.22-.09-.27-.19-.55-.3-.82l-.33-.8-.07-.2-.06-.18s-.02-.05-.02-.09c0,0,0-.05,0-.08,0-.06,0-.12,0-.18,0-.06.02-.11.02-.17.02-.05.03-.1.05-.15.02-.05.05-.1.07-.14.02-.02.02-.04.04-.07.02-.03.06-.04.04-.1-.04-.18-.18-.31-.33-.34Z" />
    <path class="cls-1"
        d="m119,40.53c.32.02.57-.27.57-.62,0-.34-.25-.62-.55-.64-.3-.01-.55.26-.57.6-.01.35.23.64.55.65Z" />
    <path class="cls-1"
        d="m119.05,47.14c.4.02.71-.28.71-.62,0-.35-.32-.61-.69-.63-.38-.01-.69.26-.71.6-.01.35.3.64.69.65Z" />
    <path class="cls-1"
        d="m118.95,39.62c-.06-.02-.06.03-.09.05-.02.03-.06.06-.09.09-.06.07-.11.13-.15.21-.05.08-.08.16-.11.24-.02.08-.06.17-.07.26-.02.09-.03.17-.04.25,0,.05,0,.07-.01.14,0,.03,0,.07,0,.13v.24s.03.22.03.22c.02.3.04.59.07.89.03.29.08.58.15.87v-.22c-.14.57-.26,1.14-.37,1.72l-.08.45-.02.12s-.02.14,0,.19v.05s.02.08.02.08c0,.06.02.1.04.14.12.36.35.63.62.86.12.1.31.1.42,0,.09-.09.1-.23.02-.33h0c-.16-.23-.29-.47-.34-.68,0-.02-.01-.06,0-.07v-.03s0-.06,0-.06c0-.03,0,.01.01-.03l.02-.09.12-.41c.17-.55.34-1.1.47-1.67.02-.07.01-.15,0-.22-.07-.28-.14-.56-.23-.84l-.25-.84-.05-.21-.04-.19s-.01-.05-.02-.09c0,0,0-.05,0-.08,0-.06,0-.12.01-.18,0-.06.03-.11.04-.16.02-.05.04-.1.06-.14.02-.05.06-.09.08-.13.02-.02.03-.04.05-.06.02-.03.06-.03.05-.1-.03-.19-.15-.33-.3-.37Z" />
</svg>